<svg width="1440" height="824" viewBox="0 0 1440 824" fill="none" xmlns="http://www.w3.org/2000/svg">
<g clip-path="url(#clip0_352_18994)">
<path d="M0 0H1440V824H0V0Z" fill="#F4A261"/>
<rect x="-192.238" y="-192.763" width="716.022" height="983.919" transform="rotate(10.86 -192.238 -192.763)" fill="#E76F51"/>
<rect x="303.389" y="170.291" width="318.551" height="446.371" rx="10.5" transform="rotate(11.5342 303.389 170.291)" stroke="black"/>
<path fill-rule="evenodd" clip-rule="evenodd" d="M497.063 635.18C496.117 640.06 491.395 643.25 486.515 642.304C481.635 641.358 478.446 636.636 479.391 631.756L482.72 614.576C483.666 609.696 488.388 606.507 493.268 607.452C498.148 608.398 501.337 613.12 500.392 618L497.063 635.18ZM491.869 635.702C491.448 637.871 489.349 639.288 487.181 638.868C485.012 638.448 483.594 636.349 484.015 634.18L487.915 614.054C488.335 611.886 490.434 610.468 492.602 610.888C494.771 611.309 496.189 613.407 495.768 615.576L491.869 635.702Z" fill="#222222"/>
<path d="M498.707 643.648L503.395 644.556L509.863 611.177L505.176 610.269L498.707 643.648Z" fill="#222222"/>
<path d="M508.406 560.854L519.096 579.613L502.164 593.067L491.484 574.262L508.406 560.854Z" fill="#E76F51"/>
<path d="M339.23 239.562L318.844 235.402L319.499 232.188C320.207 228.718 323.153 225.287 328.373 221.901L336.224 216.808C338.152 215.566 339.277 214.159 339.597 212.589C339.932 210.946 339.674 209.599 338.779 208.58C337.92 207.568 336.577 206.875 334.75 206.502C331.645 205.869 329.089 206.831 327.148 209.44L323.533 206.458C326.814 203.247 330.774 202.115 335.414 203.062C338.373 203.666 340.774 204.955 342.536 206.95C344.299 208.945 344.948 211.17 344.456 213.581C343.972 215.955 342.238 218.111 339.217 220.044L331.498 225.05C327.282 227.803 324.866 230.506 324.329 233.135L339.82 236.297L339.157 239.547L339.23 239.562Z" fill="#222222"/>
<path d="M330.412 261.315L329.393 263.363L331.598 263.971C335.74 265.113 338.345 269.29 337.473 273.563C336.563 278.023 332.209 280.901 327.749 279.991C324.57 279.342 322.192 276.944 321.419 273.997L320.45 270.295L318.107 273.321C316.242 275.73 313.114 277.004 309.935 276.355C305.475 275.445 302.597 271.091 303.507 266.631C304.379 262.358 308.413 259.536 312.671 260.108L314.938 260.413L314.803 258.13C314.761 257.43 314.809 256.712 314.957 255.989C315.867 251.528 320.221 248.65 324.681 249.561C329.141 250.471 332.019 254.825 331.109 259.285C330.961 260.009 330.724 260.688 330.412 261.315Z" fill="#F4A261"/>
<g clip-path="url(#clip1_352_18994)">
<path d="M439.951 418.951C440.341 419.339 440.845 419.621 441.424 419.739C441.865 419.829 442.303 419.815 442.713 419.713L439.951 418.951Z" fill="#F4A261"/>
<path d="M439.16 417.528L440.809 414.214C439.983 414.587 439.342 415.338 439.147 416.294C439.061 416.715 439.07 417.134 439.16 417.528Z" fill="#F4A261"/>
<path d="M442.38 410.462C442.58 409.816 442.75 409.152 442.889 408.473C445.147 397.41 438.009 386.612 426.946 384.354C415.883 382.096 405.084 389.234 402.827 400.297C402.688 400.976 402.585 401.654 402.516 402.327C405.477 403.386 407.286 406.488 406.639 409.66C405.93 413.137 402.536 415.38 399.059 414.67C396.701 414.189 394.91 412.473 394.223 410.334C384.799 410.433 376.39 417.084 374.429 426.694C372.171 437.757 379.309 448.555 390.372 450.813C397.816 452.332 405.149 449.599 409.838 444.259C409.066 442.941 408.758 441.343 409.088 439.728C409.797 436.251 413.191 434.008 416.668 434.718C420.145 435.427 422.388 438.821 421.679 442.298C421.349 443.913 420.44 445.262 419.213 446.172C421.435 452.922 427.11 458.31 434.555 459.829C445.617 462.087 456.416 454.949 458.673 443.886C460.635 434.276 455.504 424.862 446.872 421.078C445.402 422.777 443.082 423.654 440.724 423.173C437.247 422.463 435.003 419.07 435.713 415.593C436.36 412.422 439.24 410.277 442.38 410.462Z" fill="#F4A261"/>
<path d="M418.101 442.083C418.162 441.928 418.21 441.766 418.245 441.597C418.469 440.496 418.042 439.412 417.228 438.748L418.101 442.083Z" fill="#F4A261"/>
<path d="M414.574 438.206C413.564 438.498 412.746 439.328 412.521 440.429C412.487 440.598 412.468 440.766 412.463 440.932L414.574 438.206Z" fill="#F4A261"/>
<path d="M398.585 410.707C398.922 410.962 399.319 411.146 399.76 411.236C400.339 411.355 400.913 411.293 401.424 411.089L398.585 410.707Z" fill="#F4A261"/>
<path d="M402.709 410.089C402.947 409.762 403.119 409.38 403.205 408.959C403.4 408.003 403.105 407.061 402.491 406.395L402.709 410.089Z" fill="#F4A261"/>
<path fill-rule="evenodd" clip-rule="evenodd" d="M410.646 449.988C411.671 449.126 412.629 448.18 413.509 447.159C413.701 447.218 413.898 447.268 414.098 447.309C414.299 447.35 414.5 447.381 414.7 447.402C415.109 448.686 415.62 449.932 416.224 451.127C419.571 457.738 425.797 462.811 433.62 464.408C447.212 467.182 460.478 458.412 463.252 444.82C465.587 433.381 459.744 422.171 449.731 417.255C449.305 417.046 448.872 416.848 448.432 416.662C448.379 415.06 447.726 413.561 446.652 412.436C446.788 412.033 446.914 411.625 447.03 411.212C447.197 410.621 447.343 410.019 447.468 409.407C450.241 395.816 441.472 382.549 427.88 379.775C414.289 377.002 401.022 385.771 398.248 399.363C398.124 399.975 398.022 400.586 397.943 401.195C397.889 401.62 397.845 402.045 397.812 402.469C396.383 403.083 395.195 404.207 394.519 405.66C394.041 405.658 393.565 405.67 393.091 405.696C381.953 406.296 372.185 414.32 369.85 425.759C367.076 439.351 375.846 452.618 389.438 455.391C397.261 456.988 404.977 454.76 410.646 449.988ZM441.425 419.739C440.845 419.621 440.342 419.339 439.952 418.951C439.561 418.563 439.284 418.069 439.16 417.528C439.07 417.134 439.061 416.715 439.147 416.294C439.342 415.338 439.983 414.587 440.809 414.214C441.349 413.971 441.968 413.888 442.592 414.016C444.173 414.339 445.193 415.881 444.87 417.462C444.638 418.601 443.771 419.449 442.713 419.713C442.303 419.815 441.865 419.829 441.425 419.739ZM435.713 415.593C436.36 412.422 439.24 410.277 442.38 410.462C442.58 409.816 442.75 409.152 442.889 408.473C445.147 397.41 438.009 386.612 426.946 384.354C415.883 382.096 405.085 389.234 402.827 400.297C402.688 400.976 402.585 401.654 402.516 402.327C405.477 403.386 407.287 406.488 406.639 409.66C405.93 413.137 402.536 415.38 399.059 414.67C396.701 414.189 394.91 412.473 394.223 410.334C384.799 410.433 376.39 417.084 374.429 426.694C372.171 437.757 379.309 448.555 390.372 450.813C397.816 452.332 405.149 449.599 409.838 444.259C409.066 442.941 408.758 441.343 409.088 439.728C409.797 436.251 413.191 434.008 416.668 434.718C420.145 435.427 422.388 438.821 421.679 442.298C421.349 443.913 420.44 445.262 419.213 446.172C421.435 452.922 427.11 458.31 434.555 459.829C445.618 462.087 456.416 454.949 458.674 443.886C460.635 434.276 455.504 424.862 446.872 421.078C445.402 422.777 443.082 423.654 440.724 423.173C437.247 422.463 435.003 419.07 435.713 415.593ZM418.245 441.597C418.21 441.766 418.162 441.928 418.101 442.083C417.593 443.38 416.211 444.163 414.799 443.875C413.387 443.587 412.423 442.325 412.463 440.932C412.468 440.766 412.487 440.598 412.522 440.429C412.746 439.328 413.564 438.498 414.574 438.206C415.013 438.079 415.488 438.054 415.967 438.152C416.446 438.249 416.873 438.459 417.228 438.748C418.042 439.412 418.47 440.496 418.245 441.597ZM398.585 410.707C398.922 410.962 399.319 411.146 399.76 411.236C400.339 411.355 400.913 411.293 401.424 411.089C401.935 410.885 402.383 410.539 402.709 410.089C402.947 409.762 403.119 409.38 403.205 408.959C403.4 408.003 403.105 407.061 402.491 406.395C402.09 405.959 401.553 405.641 400.928 405.513C399.347 405.191 397.805 406.21 397.482 407.791C397.25 408.93 397.715 410.05 398.585 410.707Z" fill="#2C2C2C"/>
<path d="M403.206 408.959C402.883 410.539 401.34 411.559 399.76 411.236C398.18 410.914 397.16 409.371 397.482 407.791C397.805 406.21 399.348 405.191 400.928 405.513C402.508 405.836 403.528 407.378 403.206 408.959Z" fill="white"/>
<path d="M444.87 417.462C444.548 419.042 443.005 420.062 441.425 419.739C439.844 419.417 438.825 417.874 439.147 416.294C439.47 414.713 441.012 413.693 442.593 414.016C444.173 414.339 445.193 415.881 444.87 417.462Z" fill="white"/>
<path d="M414.799 443.875C416.38 444.197 417.922 443.177 418.245 441.597C418.567 440.017 417.548 438.474 415.967 438.152C414.387 437.829 412.844 438.849 412.522 440.429C412.199 442.01 413.219 443.552 414.799 443.875Z" fill="white"/>
</g>
<g clip-path="url(#clip2_352_18994)">
<path d="M410.498 447.844L394.905 419.838C396.622 418.989 397.942 417.384 398.355 415.362C398.752 413.415 398.224 411.493 397.071 410.055L422.219 390.475C423.104 391.448 424.296 392.159 425.684 392.443C427.073 392.726 428.449 392.538 429.646 391.988L445.112 419.859C443.488 420.731 442.248 422.291 441.851 424.238C441.438 426.26 442.025 428.254 443.271 429.709L417.949 449.367C417.063 448.386 415.866 447.67 414.471 447.385C413.078 447.101 411.697 447.291 410.498 447.844Z" fill="#E76F51"/>
<path fill-rule="evenodd" clip-rule="evenodd" d="M392.53 407.668L420.549 385.852C420.565 385.525 420.605 385.194 420.673 384.862C421.383 381.385 424.776 379.142 428.253 379.852L428.255 379.852C431.731 380.563 433.973 383.956 433.264 387.432C433.197 387.762 433.105 388.081 432.992 388.387L450.225 419.442C453.242 420.469 455.096 423.603 454.442 426.807C454.431 426.864 454.418 426.92 454.405 426.976L454.407 426.979L454.404 426.981C453.707 429.979 450.998 432.016 448.007 431.948L419.605 453.998C419.589 454.318 419.548 454.641 419.482 454.965C418.773 458.441 415.38 460.685 411.904 459.976L411.902 459.976C408.425 459.266 406.182 455.873 406.891 452.396C406.958 452.07 407.048 451.756 407.159 451.453L389.67 420.042C386.892 418.933 385.198 415.998 385.731 412.967L385.729 412.964L385.732 412.962C385.742 412.905 385.753 412.849 385.764 412.792C386.418 409.587 389.352 407.431 392.53 407.668ZM410.498 447.844L394.905 419.838C396.622 418.989 397.942 417.384 398.355 415.362C398.753 413.414 398.224 411.493 397.071 410.055L422.219 390.475C423.104 391.448 424.296 392.159 425.684 392.443C427.073 392.726 428.449 392.538 429.646 391.988L445.112 419.859C443.488 420.731 442.249 422.291 441.851 424.238C441.439 426.26 442.025 428.254 443.271 429.708L417.95 449.367C417.063 448.386 415.866 447.67 414.471 447.385C413.078 447.101 411.697 447.291 410.498 447.844ZM426.385 389.009C425.849 388.9 425.379 388.65 425.002 388.307C424.267 387.637 423.894 386.608 424.107 385.563C424.429 383.983 425.972 382.963 427.552 383.286C429.133 383.608 430.153 385.151 429.83 386.731C429.617 387.775 428.871 388.575 427.934 388.904C427.453 389.073 426.921 389.118 426.385 389.009ZM412.214 450.926C411.28 451.257 410.538 452.055 410.325 453.096C410.003 454.677 411.022 456.22 412.603 456.542C414.183 456.865 415.726 455.845 416.048 454.264C416.261 453.224 415.891 452.2 415.164 451.53C414.786 451.182 414.311 450.929 413.771 450.819C413.232 450.709 412.697 450.755 412.214 450.926ZM394.921 414.661C394.721 415.641 394.052 416.405 393.195 416.768C392.671 416.99 392.076 417.061 391.476 416.938C389.895 416.616 388.876 415.073 389.198 413.493C389.521 411.912 391.063 410.893 392.644 411.215C393.321 411.353 393.895 411.716 394.305 412.209C394.851 412.867 395.106 413.758 394.921 414.661ZM446.047 427.553C445.401 426.884 445.085 425.919 445.285 424.939C445.469 424.036 446.052 423.315 446.813 422.924C447.383 422.631 448.053 422.523 448.731 422.661C450.311 422.984 451.331 424.526 451.008 426.107C450.686 427.687 449.143 428.707 447.563 428.384C446.962 428.262 446.443 427.963 446.047 427.553Z" fill="#2C2C2C"/>
<path d="M427.552 383.286C429.133 383.608 430.153 385.151 429.83 386.731C429.508 388.312 427.965 389.331 426.385 389.009C424.804 388.686 423.784 387.144 424.107 385.563C424.429 383.983 425.972 382.963 427.552 383.286Z" fill="white"/>
<path d="M392.644 411.215C394.224 411.538 395.244 413.08 394.921 414.661C394.599 416.241 393.056 417.261 391.476 416.938C389.895 416.616 388.876 415.073 389.198 413.493C389.521 411.912 391.063 410.893 392.644 411.215Z" fill="white"/>
<path d="M448.731 422.661C450.311 422.984 451.331 424.526 451.008 426.107C450.686 427.687 449.143 428.707 447.563 428.384C445.982 428.062 444.963 426.519 445.285 424.939C445.608 423.358 447.15 422.339 448.731 422.661Z" fill="white"/>
<path d="M416.048 454.264C415.726 455.845 414.183 456.865 412.603 456.542C411.022 456.22 410.003 454.677 410.325 453.096C410.648 451.516 412.19 450.496 413.771 450.819C415.351 451.141 416.371 452.684 416.048 454.264Z" fill="white"/>
</g>
</g>
<defs>
<clipPath id="clip0_352_18994">
<rect width="1440" height="824" fill="white"/>
</clipPath>
<clipPath id="clip1_352_18994">
<rect width="49.9729" height="101.171" fill="white" transform="translate(379.863 360.805) rotate(10.8596)"/>
</clipPath>
<clipPath id="clip2_352_18994">
<rect width="51.1548" height="101.171" fill="white" transform="translate(428.983 370.228) rotate(10.8596)"/>
</clipPath>
</defs>
</svg>
